<svg width="260" height="80" viewBox="0 0 260 80" fill="none" xmlns="http://www.w3.org/2000/svg">
  <defs>
    <linearGradient id="petalGradient" x1="0" y1="0" x2="120" y2="120" gradientUnits="userSpaceOnUse">
      <stop offset="0%" stop-color="#F8B7D2"/>
      <stop offset="100%" stop-color="#E884AB"/>
    </linearGradient>
    <linearGradient id="petalLight" x1="0" y1="0" x2="120" y2="120" gradientUnits="userSpaceOnUse">
      <stop offset="0%" stop-color="#FCE1EB"/>
      <stop offset="100%" stop-color="#F6B5D4"/>
    </linearGradient>
  </defs>
  <rect x="0" y="0" width="80" height="80" rx="22" fill="#FFFFFF"/>
  <g transform="translate(6 6)">
    <path d="M34 4C24 4 16 14 10 26C4 38 10 52 20 61C30 70 42 72 54 63C66 54 72 40 68 28C64 16 54 4 44 4C38 4 34 10 34 16C34 10 30 4 24 4Z" fill="url(#petalGradient)" stroke="#D67B9F" stroke-width="2"/>
    <path d="M4 28C0 34 0 44 6 54C12 64 20 69 28 66C36 63 38 52 32 42C26 32 14 22 4 28Z" fill="url(#petalLight)" stroke="#D67B9F" stroke-width="2"/>
    <path d="M72 28C76 34 76 44 70 54C64 64 56 69 48 66C40 63 38 52 44 42C50 32 62 22 72 28Z" fill="url(#petalLight)" stroke="#D67B9F" stroke-width="2"/>
    <circle cx="32" cy="32" r="14" fill="#FFFFFF" stroke="#E884AB" stroke-width="2"/>
    <text x="32" y="36" text-anchor="middle" dominant-baseline="middle" fill="#3E233F" font-family="Inter, Arial, sans-serif" font-size="16" font-weight="700">A</text>
  </g>
  <text x="98" y="48" fill="#18181B" font-family="Inter, Arial, sans-serif" font-size="32" font-weight="800">Artham</text>
</svg>
